<svg width="68" height="70" viewBox="0 0 68 70" fill="none" xmlns="http://www.w3.org/2000/svg">
<g id="Icono">
<path id="Vector_2" d="M30.9979 3H61.1591C63.4037 3 65.2224 4.87077 65.2224 7.17969V40.5483C65.2224 42.8622 63.4037 44.7329 61.1591 44.7329H36.5017" stroke="#6EDC9A" stroke-width="5" stroke-linecap="round" stroke-linejoin="round"/>
<path id="Vector_5" d="M15.678 20.2357C16.7782 20.2357 17.8676 20.0128 18.8841 19.5797C19.9005 19.1466 20.8241 18.5118 21.6021 17.7116C22.38 16.9113 22.9971 15.9613 23.4182 14.9158C23.8392 13.8702 24.0559 12.7496 24.0559 11.6179C24.0559 10.4861 23.8392 9.36551 23.4182 8.31994C22.9971 7.27438 22.38 6.32435 21.6021 5.52411C20.8241 4.72387 19.9005 4.08908 18.8841 3.65599C17.8676 3.22291 16.7782 3 15.678 3C13.4561 3 11.3251 3.90795 9.75399 5.52411C8.18284 7.14027 7.30017 9.33225 7.30017 11.6179C7.30017 13.9034 8.18284 16.0954 9.75399 17.7116C11.3251 19.3278 13.4561 20.2357 15.678 20.2357Z" stroke="#6EDC9A" stroke-width="5" stroke-linecap="round" stroke-linejoin="round"/>
<path id="Vector_6" d="M43.6808 27.7483C43.6808 24.9569 41.4793 22.6923 38.7656 22.6923H15.6781C12.3156 22.6923 9.09092 24.0663 6.71332 26.512C4.33572 28.9577 3 32.2748 3 35.7335V47.3077H8.43209L10.246 67H21.1102L25.2835 32.8092H38.7656C41.4793 32.8092 43.6808 30.5446 43.6808 27.7483Z" stroke="#6EDC9A" stroke-width="5" stroke-linecap="round" stroke-linejoin="round"/>
</g>
</svg>
