<svg width="23" height="24" viewBox="0 0 23 24" fill="none" xmlns="http://www.w3.org/2000/svg">
<path d="M10.4033 1H20.5331C21.287 1 21.8978 1.62831 21.8978 2.40378V13.6108C21.8978 14.388 21.287 15.0163 20.5331 15.0163H12.2518" stroke="#505050" stroke-width="2" stroke-linecap="round" stroke-linejoin="round"/>
<path d="M5.25797 6.78872C5.62748 6.78872 5.99337 6.71385 6.33475 6.5684C6.67613 6.42294 6.98631 6.20975 7.2476 5.94098C7.50888 5.67221 7.71614 5.35314 7.85754 5.00198C7.99895 4.65082 8.07173 4.27445 8.07173 3.89436C8.07173 3.51427 7.99895 3.1379 7.85754 2.78674C7.71614 2.43558 7.50888 2.1165 7.2476 1.84774C6.98631 1.57897 6.67613 1.36578 6.33475 1.22032C5.99337 1.07486 5.62748 1 5.25797 1C4.51172 1 3.79603 1.30494 3.26834 1.84774C2.74066 2.39054 2.44421 3.12673 2.44421 3.89436C2.44421 4.66199 2.74066 5.39818 3.26834 5.94098C3.79603 6.48378 4.51172 6.78872 5.25797 6.78872Z" stroke="#505050" stroke-width="2" stroke-linecap="round" stroke-linejoin="round"/>
<path d="M14.6629 9.31192C14.6629 8.37442 13.9235 7.61383 13.0121 7.61383H5.25801C4.12871 7.61383 3.04567 8.07529 2.24714 8.8967C1.44861 9.7181 1 10.8322 1 11.9938V15.8811H2.8244L3.43361 22.4949H7.08241L8.48406 11.0117H13.0121C13.9235 11.0117 14.6629 10.2511 14.6629 9.31192Z" stroke="#505050" stroke-width="2" stroke-linecap="round" stroke-linejoin="round"/>
</svg>
